<svg height="1098" viewBox="0 0 856 1098" width="856" xmlns="http://www.w3.org/2000/svg"><g fill="none"><rect fill="#101010" height="146" rx="8" width="40" x=".02" y="795.18"/><rect fill="#3deeb7" height="146" rx="8" width="40" x="135.02" y="564.18"/><rect fill="#3deeb7" height="146" rx="8" width="40" x="680.02" y="462.18"/><rect fill="#101010" height="146" rx="8" width="40" x="815.02" y="608.18"/><rect fill="#3deeb7" height="65" rx="8" width="40" x="815.02" y="797.18"/><rect fill="#101010" height="146" rx="8" width="40" x="680.02" y=".18"/><rect fill="#3deeb7" height="146" rx="8" width="40" x="135.02" y="110.18"/><rect fill="#3deeb7" height="65" rx="8" width="40" x=".02" y="693.18"/><rect fill="#101010" height="65" rx="8" width="40" x="135.02" y="462.18"/><rect fill="#3deeb7" height="65" rx="8" width="40" x="680.02" y="649.18"/><rect fill="#3deeb7" height="65" rx="8" width="40" x="270.02" y="564.18"/><rect fill="#101010" height="146" rx="8" width="40" x=".02" y="381.18"/></g></svg>